HIERARCHY
ROOT Hips
{
  OFFSET -25.4992 47.4658 0.522821
  CHANNELS 6 Xposition Yposition Zposition Zrotation Xrotation Yrotation
  JOINT Bip01_Pelvis
  {
    OFFSET 0 0 0
    CHANNELS 6 Xposition Yposition Zposition Zrotation Xrotation Yrotation
    JOINT Bip01_Spine
    {
      OFFSET 7.92815 1.03427 -0.957866
      CHANNELS 6 Xposition Yposition Zposition Zrotation Xrotation Yrotation
      JOINT Bip01_Spine1
      {
        OFFSET 14.2482 -0.00839019 0.000894789
        CHANNELS 6 Xposition Yposition Zposition Zrotation Xrotation Yrotation
        JOINT Bip01_Neck
        {
          OFFSET 16.1384 -3.98645 0.000135839
          CHANNELS 6 Xposition Yposition Zposition Zrotation Xrotation Yrotation
          JOINT Bip01_Neck1
          {
            OFFSET 9.69266 -0.00491233 0
            CHANNELS 6 Xposition Yposition Zposition Zrotation Xrotation Yrotation
            JOINT Bip01_Head
            {
              OFFSET 6.2355 0 0
              CHANNELS 6 Xposition Yposition Zposition Zrotation Xrotation Yrotation
              JOINT BN_Mouth_01
              {
                OFFSET 4.58056 2.14338 0
                CHANNELS 6 Xposition Yposition Zposition Zrotation Xrotation Yrotation
                End Site
                {
                  OFFSET 0 0 0
                }
              }
            }
          }
          JOINT Bip01_L_Clavicle
          {
            OFFSET -0.933029 -3.98291 -6.88005
            CHANNELS 6 Xposition Yposition Zposition Zrotation Xrotation Yrotation
            JOINT Bip01_L_UpperArm
            {
              OFFSET 15.6802 0 0
              CHANNELS 6 Xposition Yposition Zposition Zrotation Xrotation Yrotation
              JOINT Bip01_L_Forearm
              {
                OFFSET 15.3149 0 0
                CHANNELS 6 Xposition Yposition Zposition Zrotation Xrotation Yrotation
                JOINT Bip01_L_Hand
                {
                  OFFSET 16.178 0 0
                  CHANNELS 6 Xposition Yposition Zposition Zrotation Xrotation Yrotation
                  JOINT Bip01_L_Finger0
                  {
                    OFFSET 12.9992 0 0
                    CHANNELS 6 Xposition Yposition Zposition Zrotation Xrotation Yrotation
                    End Site
                    {
                      OFFSET 0 0 0
                    }
                  }
                }
              }
              JOINT BN__UpperArm_L_01
              {
                OFFSET 4.92586 2.56729 1.95639
                CHANNELS 6 Xposition Yposition Zposition Zrotation Xrotation Yrotation
                End Site
                {
                  OFFSET 0 0 0
                }
              }
            }
          }
          JOINT Bip01_R_Clavicle
          {
            OFFSET -1.90751 -3.34722 7.0168
            CHANNELS 6 Xposition Yposition Zposition Zrotation Xrotation Yrotation
            JOINT Bip01_R_UpperArm
            {
              OFFSET 15.6801 0 0
              CHANNELS 6 Xposition Yposition Zposition Zrotation Xrotation Yrotation
              JOINT Bip01_R_Forearm
              {
                OFFSET 15.3149 0 0
                CHANNELS 6 Xposition Yposition Zposition Zrotation Xrotation Yrotation
                JOINT Bip01_R_Hand
                {
                  OFFSET 16.1779 0 0
                  CHANNELS 6 Xposition Yposition Zposition Zrotation Xrotation Yrotation
                  JOINT Bip01_R_Finger0
                  {
                    OFFSET 12.9991 0 0
                    CHANNELS 6 Xposition Yposition Zposition Zrotation Xrotation Yrotation
                    End Site
                    {
                      OFFSET 0 0 0
                    }
                  }
                }
              }
              JOINT BN__UpperArm_R_01
              {
                OFFSET 4.92584 2.56728 -1.95638
                CHANNELS 6 Xposition Yposition Zposition Zrotation Xrotation Yrotation
                End Site
                {
                  OFFSET 0 0 0
                }
              }
            }
          }
        }
      }
      JOINT Bip01_L_Thigh
      {
        OFFSET -8.91231 -1.85462 5.82833
        CHANNELS 6 Xposition Yposition Zposition Zrotation Xrotation Yrotation
        JOINT Bip01_L_Calf
        {
          OFFSET 15.7566 0 0
          CHANNELS 6 Xposition Yposition Zposition Zrotation Xrotation Yrotation
          JOINT Bip01_L_HorseLink
          {
            OFFSET 16.2363 0 0
            CHANNELS 6 Xposition Yposition Zposition Zrotation Xrotation Yrotation
            JOINT Bip01_L_Foot
            {
              OFFSET 13.9816 0 0
              CHANNELS 6 Xposition Yposition Zposition Zrotation Xrotation Yrotation
              JOINT Bip01_L_Toe0
              {
                OFFSET 7.68594 5.03696 0
                CHANNELS 6 Xposition Yposition Zposition Zrotation Xrotation Yrotation
                End Site
                {
                  OFFSET 0 0 0
                }
              }
            }
          }
        }
      }
      JOINT Bip01_R_Thigh
      {
        OFFSET -6.80264 -1.57702 -6.62463
        CHANNELS 6 Xposition Yposition Zposition Zrotation Xrotation Yrotation
        JOINT Bip01_R_Calf
        {
          OFFSET 15.7566 0 0
          CHANNELS 6 Xposition Yposition Zposition Zrotation Xrotation Yrotation
          JOINT Bip01_R_HorseLink
          {
            OFFSET 16.2363 0 0
            CHANNELS 6 Xposition Yposition Zposition Zrotation Xrotation Yrotation
            JOINT Bip01_R_Foot
            {
              OFFSET 13.9816 0 0
              CHANNELS 6 Xposition Yposition Zposition Zrotation Xrotation Yrotation
              JOINT Bip01_R_Toe0
              {
                OFFSET 7.68597 5.03696 0
                CHANNELS 6 Xposition Yposition Zposition Zrotation Xrotation Yrotation
                End Site
                {
                  OFFSET 0 0 0
                }
              }
            }
          }
        }
      }
    }
    JOINT BN_Tail_01
    {
      OFFSET -7.9584 -2.82211 0
      CHANNELS 6 Xposition Yposition Zposition Zrotation Xrotation Yrotation
      JOINT BN_Tail_02
      {
        OFFSET 10.9082 0 0.00113176
        CHANNELS 6 Xposition Yposition Zposition Zrotation Xrotation Yrotation
        End Site
        {
          OFFSET 0 0 0
        }
      }
    }
  }
}
MOTION
Frames:	6
Frame Time:	0.0333333
-24.1804 43.8403 -6.4272e-006 -88.9338 -83.373 11.6236 0 -2.38419e-007 0 -89.9441 -3.50835e-015 -90 7.98488 1.06468 -3.09944e-005 10.9304 0.196692 0.550312 14.2467 -0.00817489 -0.000174999 -15.2819 1.18266 -11.8147 16.1423 -3.99011 0.000284791 -18.9305 -2.14534 -1.70169 9.69215 -0.00481034 0.000283479 -13.7466 -3.24677 6.87258 6.2355 1.90735e-006 -1.78814e-007 -22.1388 0.552362 -2.42223 4.58057 2.14338 -4.76837e-007 -109.928 -0.0456848 -179.968 -3.79558 -1.35249 -6.91895 -161.44 -19.0152 -90.9688 15.6801 -7.6294e-006 -8.88178e-016 -34.8092 -29.2667 62.8031 15.3149 0 9.53674e-007 -68.6673 1.08589e-006 2.15483e-005 16.1779 -3.09948e-006 8.88177e-016 153.571 -87.8582 155.7 12.9992 9.53699e-007 -2.38415e-006 -0.502697 1.56006 -0.839551 6.09986 3.12147 -5.23853 -126.021 -79.3773 -131.367 -3.38156 -1.87508 7.0106 -160.835 17.5437 89.0394 15.6802 3.8147e-006 2.38418e-006 21.4388 82.1968 -135.971 15.3149 -5.12602e-006 -8.88178e-016 -46.9585 -5.25601e-006 1.14033e-005 16.178 3.81473e-006 4.76837e-007 5.30337 84.945 -14.0222 12.9992 4.76845e-007 -3.81467e-006 -2.61681 -0.773381 18.491 5.03888 3.89273 -1.75287 53.9721 -79.3762 48.6257 -8.10224 0.490801 6.2375 -139.706 12.2166 -169.765 15.7566 4.70877e-006 -1.77635e-015 -61.7217 -8.70998e-006 5.22681e-006 16.2363 -1.90735e-006 9.53673e-007 85.8421 2.95087e-006 -2.27148e-009 13.9816 4.52996e-006 -2.86102e-006 -48.7254 -4.28832 -2.15005 7.68592 5.03697 -2.86101e-006 89.9963 -1.26195e-006 -7.27415e-006 -7.98077 0.447273 -6.39531 -110.862 -0.89013 171.548 15.7566 -7.62939e-006 -9.53673e-007 -63.309 -1.35276e-006 1.99791e-006 16.2363 3.8147e-006 1.77635e-015 72.303 2.02471e-007 2.48607e-006 13.9816 0 -1.90735e-006 -6.74771 7.8511 9.10641 7.68596 5.03694 -3.81469e-006 89.9962 -1.57456e-005 1.13455e-005 -7.95841 -2.8221 7.15255e-007 -63.9017 2.49562 -178.308 10.9082 3.8147e-006 0.00172084 29.9375 -0.00841739 26.3596 
-23.2328 43.1787 0.155707 -87.1832 -83.4924 11.7302 1.04811e-006 -1.04811e-008 2.3674e-006 -89.9809 -0.0124171 -91.9079 7.97994 1.06333 -0.266537 7.60512 0.00678475 0.945883 14.2471 -0.00814248 -0.000167291 -11.3411 0.503046 -9.80251 16.1428 -3.9902 0.000218941 -11.2906 -3.1218 -3.20575 9.69216 -0.00482075 0.000295969 -13.2453 -3.21779 5.18625 6.23547 1.78289e-006 -1.38579e-009 -25.0988 0.571129 0.395829 4.58054 2.14337 -2.10206e-007 -111.744 -0.032669 -179.978 -4.15864 -0.74218 -6.80168 -169.421 -14.6387 -93.1267 15.6801 -1.1702e-005 2.63971e-006 -28.4303 -25.7461 66.2828 15.3148 1.26982e-006 9.10922e-007 -69.5931 6.20863e-006 3.2432e-005 16.1778 -1.62772e-006 -5.10685e-006 -131.224 -86.5977 -128.104 12.9991 4.09868e-006 -6.51873e-007 1.11044 2.98281 -0.922441 6.09983 3.12145 -5.2385 -126.021 -79.3773 -131.367 -3.37944 -1.5019 7.10123 -168.418 7.63698 90.0781 15.6801 1.27358e-006 5.53659e-006 1.10017 73.9874 -108.528 15.3148 -1.63315e-006 -2.1828e-006 -65.1711 -2.70743e-006 1.77342e-005 16.1778 4.95607e-006 1.66137e-006 -11.4091 83.6757 16.8498 12.9991 9.69117e-007 -4.02015e-006 -2.51656 -0.930374 15.508 5.03884 3.89271 -1.75286 53.9724 -79.3762 48.6259 -8.15827 0.00297373 6.44919 -139.878 5.42575 -171.005 15.7565 2.39434e-006 4.52304e-007 -72.8801 -7.33794e-006 1.10031e-005 16.2362 1.58053e-006 1.77113e-006 84.8196 4.17037e-006 -9.76301e-006 13.9815 4.81552e-007 -2.71528e-006 -42.861 -9.16021 -3.70368 7.68587 5.03694 -1.72702e-006 89.9962 -2.10731e-005 1.6558e-005 -7.94927 0.00201946 -6.18252 -106.835 -1.6732 171.447 15.7566 -7.39057e-006 1.53853e-006 -67.2085 1.75258e-005 -2.34353e-006 16.2363 3.39321e-006 8.97153e-007 69.9045 3.61154e-006 -5.53394e-006 13.9816 -2.51203e-006 1.56336e-007 -0.286564 8.26212 8.52775 7.68594 5.03692 -2.83927e-007 88.9334 0.0669225 -0.281301 -7.95838 -2.82209 1.16637e-006 -62.7028 2.39073 179.622 10.9081 6.76035e-006 0.00172055 28.2778 -0.173183 25.7599 
-22.3348 42.4575 0.328229 -85.1291 -83.6121 11.9665 -7.0052e-008 -1.53049e-007 6.75935e-007 -89.9503 -0.0352537 -94.045 7.96419 1.05978 -0.564428 4.03134 -0.398212 1.41379 14.2476 -0.00811719 -0.000157075 -6.90385 -0.0876991 -7.55734 16.1434 -3.99031 0.000149703 -3.0758 -4.50693 -4.71577 9.69228 -0.00482228 0.000306787 -12.8812 -3.2581 3.40706 6.2355 2.60896e-006 4.22298e-007 -29.1215 0.439382 3.26167 4.58057 2.14338 2.15697e-008 -115.739 -0.0422973 -179.973 -4.45616 -0.0234891 -6.6522 -177.713 -9.43126 -95.6147 15.6802 -9.7043e-006 8.09668e-007 -21.1437 -21.9147 69.7526 15.3149 3.35705e-006 6.61464e-007 -70.6999 2.89029e-006 2.19983e-005 16.1779 -5.76277e-006 1.08048e-006 -117.345 -83.402 -112.843 12.9992 -4.90927e-007 -3.86959e-006 2.72818 4.40265 -1.04549 6.09988 3.12148 -5.23855 -126.021 -79.3773 -131.367 -3.31241 -1.11946 7.20304 -177.14 -2.20601 90.7989 15.6802 3.39673e-006 2.158e-006 2.20058 66.6048 -102.048 15.3149 -5.44645e-007 2.08718e-007 -78.5818 -7.76985e-006 -1.05921e-005 16.1779 -2.96668e-006 2.52412e-006 -15.786 82.1205 33.4772 12.9992 1.55626e-006 1.13018e-006 -2.4246 -1.09243 12.525 5.03888 3.89274 -1.75287 53.9721 -79.3763 48.6256 -8.18631 -0.545008 6.67752 -139.737 -1.50022 -173.604 15.7566 6.36625e-006 -6.18329e-007 -82.6732 -9.66351e-006 9.93348e-006 16.2363 -6.17965e-007 5.75125e-007 82.3197 8.14806e-006 1.78339e-005 13.9816 3.07755e-007 -2.76367e-006 -36.9081 -14.4174 -5.32395 7.68592 5.03697 -2.53947e-006 89.9962 1.27703e-006 -4.41429e-006 -7.87454 -0.456475 -5.95179 -102.19 -2.71592 171.588 15.7566 8.21611e-007 -1.53532e-006 -70.3189 -6.20878e-007 1.12547e-005 16.2363 -8.25988e-008 -2.06449e-007 66.5045 -5.19563e-006 1.62784e-005 13.9816 4.55447e-006 -2.35815e-006 7.30391 8.61069 7.7818 7.68596 5.03694 -2.77552e-006 87.24 -0.0713297 -0.323286 -7.95841 -2.8221 4.84166e-007 -59.9224 2.07694 174.884 10.9082 4.81751e-006 0.00172075 24.3245 -0.653532 24.1715 
-21.4652 41.7022 0.510357 -82.8575 -83.7346 12.3175 -3.70002e-007 -1.35384e-007 -5.1244e-007 -89.9029 -0.0748284 -96.3406 7.93506 1.05453 -0.883624 0.335469 -1.02271 1.92311 14.2481 -0.00809625 -0.000149052 -2.17678 -0.525006 -5.16752 16.1439 -3.9904 8.14653e-005 3.93133 -5.62386 -5.7689 9.69231 -0.00482547 0.000319688 -12.2437 -3.20595 1.81307 6.23549 2.78584e-007 7.5415e-007 -31.822 0.309052 5.37384 4.58056 2.14338 5.03849e-007 -119.734 -0.052185 -179.97 -4.6136 0.590014 -6.51744 175.659 -3.33011 -97.8387 15.6802 -9.7659e-006 2.18419e-006 -13.4775 -18.0722 72.9725 15.3149 6.22736e-007 1.03464e-006 -71.5727 4.98075e-006 2.65674e-005 16.1779 1.07867e-006 -2.97847e-006 -116.673 -80.3367 -110.431 12.9992 1.3357e-006 1.44252e-006 4.35262 5.81847 -1.20913 6.09987 3.12146 -5.23854 -126.02 -79.3773 -131.367 -3.21827 -0.776713 7.29059 174.884 -10.4274 91.3286 15.6802 6.2472e-006 3.82886e-006 6.76565 60.3912 -99.2923 15.3148 2.362e-006 -1.47855e-007 -87.4573 5.3135e-005 -3.10469e-006 16.1779 -5.6647e-006 2.36349e-006 -14.8667 81.6198 41.38 12.9992 -7.16404e-007 5.52714e-006 -2.34122 -1.25904 9.54219 5.03887 3.89273 -1.75287 53.9722 -79.3764 48.6258 -8.17779 -1.1366 6.91046 -138.806 -7.30968 -176.85 15.7566 6.83815e-006 -1.22781e-006 -90.4223 -1.17765e-005 8.979e-006 16.2363 -4.34392e-006 1.98299e-007 79.7709 9.73037e-006 5.17239e-006 13.9815 1.9281e-006 -3.59256e-006 -31.9883 -18.8724 -6.76992 7.6859 5.03696 -4.22441e-006 89.9962 1.92677e-006 1.55123e-005 -7.75363 -0.910468 -5.71385 -96.796 -3.91742 171.988 15.7566 -5.71632e-006 1.76499e-006 -73.1282 1.93699e-005 4.86337e-006 16.2363 1.53189e-007 1.12222e-006 64.5788 4.98676e-006 -5.96023e-006 13.9816 -6.5781e-007 1.85923e-006 12.214 8.90584 7.17981 7.68595 5.03693 -1.09067e-006 86.9262 -0.180052 -0.205222 -7.9584 -2.8221 5.50952e-007 -56.7822 1.60244 169.64 10.9082 4.88786e-006 0.00172215 19.6003 -1.36128 21.9439 
-20.6026 40.9384 0.694885 -80.5212 -83.8535 12.7072 1.27298e-006 -3.0197e-008 -3.38832e-007 -89.8478 -0.124024 -98.723 7.89125 1.04816 -1.21394 -3.36481 -1.85334 2.45114 14.2483 -0.00807029 -0.000141539 2.62671 -0.765737 -2.72177 16.1441 -3.99043 1.23147e-005 7.96236 -5.65522 -6.11688 9.69208 -0.00482832 0.000329381 -10.921 -2.90792 0.68485 6.23526 4.90281e-006 -2.54238e-007 -30.7968 0.777909 6.0461 4.58035 2.14328 -1.03868e-006 -121.55 -0.021286 -179.988 -4.64726 0.869581 -6.46178 172.393 3.49784 -99.1307 15.6796 -1.02702e-005 -7.09396e-007 -5.97877 -14.5515 75.7334 15.3141 3.61009e-006 1.56749e-006 -71.905 1.22383e-005 4.52989e-005 16.1769 6.07526e-006 -2.29197e-006 -119.839 -77.6443 -111.696 12.9982 1.53949e-007 2.35788e-006 5.98569 7.22906 -1.41359 6.09956 3.1213 -5.23827 -126.021 -79.3773 -131.367 -3.16809 -0.5051 7.33631 169.781 -17.669 92.6785 15.6796 4.45807e-006 2.46499e-006 12.3974 52.5574 -97.0998 15.3141 5.8636e-006 3.01867e-005 -93.8859 0.00016562 1.93953e-005 16.177 -2.41977e-006 1.80082e-006 -14.5785 81.6718 43.9935 12.9983 1.46725e-005 1.26258e-005 -2.27794 -1.40364 7.02335 5.03862 3.89255 -1.75278 53.9724 -79.3764 48.6259 -8.12895 -1.75236 7.13641 -136.096 -11.2579 -179.401 15.7562 5.63131e-006 1.8694e-006 -95.9132 4.39027e-005 -1.34029e-005 16.2356 -3.93922e-006 1.54147e-006 79.2796 1.24987e-005 -9.12236e-006 13.981 2.82575e-006 8.81691e-007 -29.2143 -21.4116 -7.78696 7.68556 5.03673 -4.91864e-007 89.9962 -1.93817e-005 -1.80909e-005 -7.58856 -1.34373 -5.47861 -90.5213 -5.11966 172.68 15.7563 -5.34622e-006 2.89242e-006 -76.4829 1.90722e-005 5.83256e-006 16.2358 9.4665e-008 -7.87527e-007 66.9525 6.02433e-006 -8.4699e-006 13.981 -4.04473e-006 4.81462e-007 10.6482 9.27368 7.05457 7.6855 5.03664 -1.44541e-006 89.9962 1.07211e-005 -9.40073e-006 -7.95827 -2.82205 1.70028e-006 -54.4398 1.03435 166.053 10.908 3.51535e-006 0.00171948 15.6493 -2.22312 19.4209 
-19.7259 40.1916 0.874611 -78.2233 -83.9729 13.1132 8.12435e-007 -7.35528e-008 -3.57544e-007 -89.7937 -0.172875 -101.13 7.83332 1.04129 -1.54528 -6.9537 -2.84837 2.97802 14.2489 -0.00804477 -0.000131497 7.30852 -0.79819 -0.316977 16.1448 -3.99055 -5.47267e-005 9.16582 -4.22539 -5.80794 9.69229 -0.00483097 0.000341548 -8.83388 -2.32564 -0.000746048 6.23536 1.95769e-006 1.0348e-006 -24.6402 1.84606 5.08007 4.58044 2.14332 5.95708e-007 -121.46 -0.0216827 -179.988 -4.60934 0.77929 -6.50062 171.976 10.7452 -99.3294 15.6799 -8.32323e-006 2.71614e-006 0.797441 -11.7094 77.9512 15.3144 -2.62025e-006 1.56204e-006 -71.4777 -3.38985e-006 -7.53429e-006 16.1773 3.54633e-006 1.57607e-006 -124.447 -75.3316 -114.501 12.9987 -3.97457e-006 3.81473e-006 7.62938 8.63325 -1.65933 6.09969 3.12137 -5.23838 -126.021 -79.3773 -131.367 -3.20174 -0.249065 7.33529 168.03 -22.9317 94.8529 15.6799 6.29433e-006 5.32096e-006 17.9199 44.9223 -95.1641 15.3144 -1.91481e-006 -1.06329e-006 -97.7627 3.06346e-005 1.93846e-005 16.1775 3.48648e-006 -5.07908e-006 -14.8507 82.6218 44.1846 12.9988 1.89653e-006 -1.48132e-006 -2.22122 -1.55069 4.50469 5.03874 3.89262 -1.75282 53.972 -79.3762 48.6256 -8.04241 -2.37058 7.34539 -131.411 -13.8616 179.323 15.7563 -1.75331e-006 1.03565e-006 -99.6634 -1.37783e-005 5.91026e-006 16.2358 6.26297e-006 -1.63651e-006 81.1865 8.28573e-006 1.62304e-005 13.9811 -4.72531e-006 -5.22148e-006 -27.8602 -22.4428 -8.30551 7.68562 5.03676 -7.10868e-006 89.6165 0.139094 -0.177582 -7.38625 -1.74262 -5.2552 -92.3984 -5.34994 173.609 15.7564 -5.75592e-006 -2.94578e-007 -88.9476 -2.5595e-005 1.08087e-005 16.2361 3.28568e-006 -4.57426e-007 73.4332 1.261e-005 -7.17046e-006 13.9814 9.13174e-007 -1.18304e-006 -0.760431 9.6598 7.20059 7.68576 5.0368 -9.55605e-007 89.9962 1.0449e-005 -9.11015e-006 -7.9583 -2.82207 -1.2682e-008 -53.3327 0.424402 165.132 10.908 2.39468e-006 0.00172232 12.3281 -3.16133 16.227 
